<svg width="144" height="144" viewBox="0 0 144 144" fill="none" xmlns="http://www.w3.org/2000/svg">
    <path fill-rule="evenodd" clip-rule="evenodd" d="M114.484 53.1232L113.671 40.4927C113.63 39.8586 112.705 39.8361 112.634 40.4675L112.104 45.145L111.448 58.0157C110.268 53.4357 108.777 48.5775 107.191 45.025C106.951 44.4876 106.323 44.7265 106.454 45.3001L106.642 46.1168L106.642 46.1169L106.642 46.1169L106.642 46.1171C107.651 50.5188 108.672 54.9728 109.746 60.3651C108.186 56.9502 106.284 53.3496 104.493 50.8975C104.164 50.4472 103.629 50.7715 103.84 51.2877C104.326 52.4749 104.866 53.7325 105.432 55.0499L105.432 55.05C106.177 56.7825 106.966 58.6184 107.733 60.5334C105.657 57.4292 103.185 54.2393 100.88 52.1247C100.478 51.7559 99.9916 52.1754 100.267 52.6467C100.931 53.7862 101.676 54.9972 102.459 56.2687C103.852 58.5325 105.363 60.9877 106.746 63.5708C105.871 62.7358 104.852 61.8911 103.769 61.1903C103.306 60.8903 102.913 61.3993 103.277 61.8143C104.008 62.6482 104.751 63.5174 105.522 64.5169L103.484 63.3895C103.447 63.3692 103.408 63.3534 103.367 63.3424L98.1146 61.9263C97.5259 61.7676 97.1908 62.576 97.7192 62.8803L100.532 64.5002L108.187 68.1408C108.448 68.2647 108.738 68.1519 108.866 67.9249C108.925 68.0624 108.984 68.2001 109.042 68.3381C109.124 68.5326 109.314 68.66 109.525 68.66L111.551 68.66C111.706 68.66 111.839 68.5955 111.931 68.4959L113.316 68.4959C113.595 68.4959 113.824 68.2763 113.836 67.9978L113.847 67.7418L114.684 68.5244C114.84 68.6703 115.074 68.7093 115.274 68.6248C119.342 66.9006 122.652 65.9195 125.778 64.9929L125.778 64.9928L125.778 64.9927L125.78 64.9923C126.347 64.824 126.909 64.6575 127.468 64.4887C128 64.3281 127.926 63.698 127.369 63.7008C124.847 63.7131 121.961 64.2208 119.358 64.8837C121.842 63.1691 124.064 61.8656 126.19 60.6179L126.191 60.6176L126.192 60.6168C126.697 60.3205 127.197 60.0273 127.693 59.7325C128.17 59.4496 127.948 58.8528 127.409 58.987C124.559 59.6962 121.4 61.1791 118.792 62.6659C119.952 61.1552 121.195 59.713 122.35 58.3737L122.35 58.3737C122.909 57.7258 123.447 57.102 123.944 56.5061C124.295 56.0858 123.883 55.6096 123.432 55.9193C121.845 57.0069 120.197 58.4507 118.694 59.9457L119.487 58.7741C119.5 58.7536 119.513 58.7321 119.524 58.7098L124.585 48.3486C124.868 47.7688 124.051 47.3132 123.682 47.8453L120.142 52.9556L116.355 59.0291C117.544 55.7234 118.669 52.8391 119.784 49.9825L119.784 49.9825L120.035 49.3388C120.241 48.8081 119.669 48.4695 119.339 48.934C117.539 51.4627 115.758 54.925 114.258 58.3067L114.484 53.1232ZM114.266 66.4876L114.304 66.4729L114.276 66.4735L114.266 66.4876Z" fill="#30844C"/>
    <path fill-rule="evenodd" clip-rule="evenodd" d="M103.489 49.6867L102.304 30.4882C102.265 29.8517 101.335 29.83 101.267 30.464L100.365 38.7661L99.5035 56.3888C97.8512 49.7053 95.7361 42.5883 93.5002 37.6649C93.2557 37.1265 92.5936 37.3744 92.7203 37.9519C92.8771 38.6667 93.0341 39.3805 93.1912 40.0952L93.1915 40.0965C94.5157 46.1184 95.8557 52.2117 97.2649 59.5873C95.0854 54.6154 92.4 49.3574 89.9205 46.0112C89.5872 45.5613 89.021 45.8969 89.2224 46.4193C89.9333 48.2631 90.7475 50.2387 91.6067 52.3237L91.6067 52.3238L91.6067 52.3238C92.5885 54.7061 93.6291 57.2313 94.6417 59.8656C91.7547 55.3624 88.2829 50.7224 85.104 47.8382C84.6994 47.471 84.1885 47.9001 84.4515 48.379C85.4119 50.127 86.5208 52.0055 87.6932 53.9918C89.5191 57.085 91.4992 60.4395 93.3127 63.9686C91.9969 62.6619 90.435 61.3395 88.7844 60.315C88.3168 60.0247 87.903 60.5493 88.2587 60.9693C89.3884 62.3032 90.5336 63.6723 91.731 65.291L89.0268 63.7319C88.9893 63.7102 88.9493 63.6934 88.9076 63.6817L80.6651 61.3648C80.0803 61.2005 79.7354 62 80.2561 62.3126L85.1676 65.2615L95.4436 70.3565C95.7286 70.4978 96.0542 70.352 96.1603 70.0804C96.2348 70.2613 96.3085 70.4425 96.3814 70.624C96.461 70.8224 96.6529 70.9531 96.8667 70.9531L99.8799 70.9531C100.063 70.9531 100.219 70.8622 100.309 70.7289L102.111 70.7289C102.39 70.7289 102.62 70.5088 102.631 70.2299L102.653 69.7027L103.832 70.8517C103.984 71.0008 104.215 71.0405 104.41 70.9539C109.802 68.5637 114.179 67.2111 118.311 65.9339L118.311 65.9339L118.311 65.9339L118.311 65.9338L118.312 65.9338L118.312 65.9336C119.294 65.63 120.263 65.3307 121.228 65.0227C121.748 64.8566 121.677 64.1876 121.131 64.1729C117.658 64.08 113.559 64.8087 109.888 65.7828C113.15 63.4369 116.065 61.6533 118.856 59.946L118.856 59.946C119.734 59.4093 120.599 58.8801 121.458 58.3434C121.922 58.0541 121.687 57.4233 121.154 57.5439C117.235 58.4306 112.776 60.5892 109.136 62.7531C110.66 60.6834 112.294 58.7076 113.812 56.8728L113.812 56.8727C114.729 55.7636 115.603 54.7061 116.385 53.7105C116.723 53.2802 116.287 52.7899 115.833 53.0956C113.572 54.6181 111.183 56.7738 109.021 59.0141L110.082 57.3797L117.701 41.116C117.975 40.5323 117.153 40.07 116.796 40.6069L110.915 49.4575L105.947 57.7636C107.508 53.2417 108.984 49.2956 110.446 45.3876L110.446 45.3874L110.447 45.3873L110.447 45.3873L110.447 45.3873C110.659 44.818 110.872 44.2496 111.085 43.6803C111.285 43.1452 110.684 42.7943 110.35 43.2576C107.823 46.7613 105.297 51.8326 103.193 56.7785L103.489 49.6867ZM103.202 67.978L103.249 67.959L103.214 67.9599L103.202 67.978Z" fill="#41A262"/>
    <path d="M95.4175 70.4677L88.2773 68.3327M95.4175 70.4677L93.5949 64.9583L89.6184 64.9583L85.2628 60.8345M95.4175 70.4677L100.215 70.2074M103.836 70.2074L108.696 64.9583L115.726 62.3337M103.836 70.2074L108.176 70.2074L114.945 66.8225M103.836 70.2074L101.69 70.9885M100.215 70.2074L95.4175 61.3552L89.6186 55.2099M100.215 70.2074L98.7634 59.543L100.215 55.8874L97.8716 51.9818M100.215 70.2074L101.69 70.9885M101.69 70.9885L101.69 63.8335L106.787 55.2099L105.312 44.6909M101.69 70.9885L106.251 62.3337L109.478 59.7925" stroke="#5BCC77" stroke-width="2.08297" stroke-linecap="round" stroke-linejoin="round"/>
    <path opacity="0.1" d="M64.0288 77.8919L131.77 91.6755C131.847 91.6913 131.922 91.711 131.994 91.7343C132.199 91.8006 132.401 91.8796 132.601 91.9584C133.633 92.3648 134.313 93.3981 134.241 94.5393L133.949 99.2074C133.902 99.9537 133.537 100.644 132.945 101.101L88.5915 135.405C86.9312 136.69 84.7904 137.179 82.737 136.744L14.493 122.294C12.9161 121.96 11.8223 120.521 11.923 118.912L12.1606 115.117C12.2095 114.337 12.5374 113.606 13.0746 113.054C13.2076 112.918 13.3375 112.777 13.475 112.645C13.5357 112.586 13.6012 112.531 13.6718 112.478L58.329 79.167C59.9608 77.9498 62.034 77.486 64.0288 77.8919Z" fill="black"/>
    <path d="M93.7718 122.511L138.639 77.8116C139.237 77.2154 139.55 76.3905 139.497 75.5475L139.166 70.2749C139.074 68.809 137.913 67.6366 136.448 67.5303L58.337 61.8613C56.067 61.6965 53.8329 62.4974 52.1846 64.0667L6.38857 107.668C5.60285 108.416 5.18833 109.474 5.25629 110.556L5.52534 114.843C5.63939 116.66 7.06823 118.119 8.88254 118.27L87.3997 124.838C89.7622 125.035 92.0923 124.185 93.7718 122.511Z" fill="#9F5C2E"/>
    <path d="M135.991 67.4141L58.1317 61.5227C55.8389 61.3492 53.5809 62.1614 51.924 63.7556L6.57679 107.385C5.21058 108.7 6.0334 111.011 7.92289 111.167L85.897 117.589C88.2291 117.781 90.5298 116.952 92.2034 115.317L137.364 71.1851C138.719 69.8609 137.881 67.5571 135.991 67.4141Z" fill="#C07F43"/>
    <path d="M129.828 70.2837L57.2081 64.8046C56.9999 64.7889 56.7949 64.8626 56.6444 65.0072L13.5909 106.365C13.1349 106.803 13.4092 107.574 14.0393 107.626L86.813 113.603C87.0248 113.621 87.2337 113.545 87.3858 113.397L130.285 71.5411C130.738 71.0998 130.458 70.3312 129.828 70.2837Z" fill="#FCC97C"/>
    <path d="M36.8552 99.8688L21.4897 98.7095L12.3274 107.511L27.7262 108.776L36.8552 99.8688Z" fill="#98613C"/>
    <path d="M54.9799 82.4689L39.6144 81.3096L30.4521 90.111L45.8509 91.3758L54.9799 82.4689Z" fill="#98613C"/>
    <path d="M72.3263 65.8307L56.9608 64.6714L47.7985 73.4729L63.1973 74.7376L72.3263 65.8307Z" fill="#98613C"/>
    <path d="M78.444 75.4284L63.0785 74.2691L53.9162 83.0705L69.315 84.3353L78.444 75.4284Z" fill="#98613C"/>
    <path d="M60.7521 92.4035L45.3866 91.2442L36.2243 100.046L51.6231 101.31L60.7521 92.4035Z" fill="#98613C"/>
    <path d="M66.5243 102.338L51.1588 101.179L41.9965 109.98L57.3953 111.245L66.5243 102.338Z" fill="#98613C"/>
    <path d="M84.5636 85.026L69.1981 83.8667L60.0358 92.6682L75.4346 93.9329L84.5636 85.026Z" fill="#98613C"/>
    <path d="M108.128 77.6271L92.7624 76.4678L83.6001 85.2693L98.9989 86.534L108.128 77.6271Z" fill="#98613C"/>
    <path d="M90.0906 94.9401L74.7251 93.7808L65.5628 102.582L80.9616 103.847L90.0906 94.9401Z" fill="#98613C"/>
    <path d="M96.2844 104.723L80.9189 103.564L71.7566 112.365L87.1554 113.63L96.2844 104.723Z" fill="#98613C"/>
    <path d="M114.129 87.2985L98.7632 86.1392L89.6009 94.9406L105 96.2054L114.129 87.2985Z" fill="#98613C"/>
    <path d="M132.183 70.2682L116.817 69.1089L107.655 77.9104L123.054 79.1751L132.183 70.2682Z" fill="#98613C"/>
    <path d="M102.601 67.7126L87.2353 66.5533L78.073 75.3547L93.4718 76.6195L102.601 67.7126Z" fill="#98613C"/>
    <ellipse opacity="0.2" cx="49.9077" cy="90.8765" rx="23.688" ry="8.70172" fill="black"/>
    <ellipse cx="54.3303" cy="69.1818" rx="27.5109" ry="14.1272" transform="rotate(30 54.3303 69.1818)" fill="#FFEFD9"/>
    <path fill-rule="evenodd" clip-rule="evenodd" d="M72.2394 65.3347C72.1476 65.4277 72.0591 65.5254 71.9741 65.628C70.4027 67.5256 70.6671 70.3379 72.5647 71.9094C73.626 72.7882 73.9295 73.7083 73.9226 74.5004C73.915 75.3693 73.5189 76.4567 72.5108 77.4412C70.7971 79.1148 67.7318 79.6708 63.524 78.8317C59.4513 78.0196 55.6816 76.1406 54.1136 74.9908C52.1267 73.5338 49.3348 73.9634 47.8778 75.9503C46.4209 77.9372 46.8505 80.7291 48.8374 82.186C49.0223 82.3216 49.2183 82.4593 49.4248 82.5984C61.9041 89.0651 74.4659 89.3249 78.154 82.9369C80.7863 78.3777 78.2258 71.597 72.2394 65.3347Z" fill="#EDD0B2"/>
    <path fill-rule="evenodd" clip-rule="evenodd" d="M77.495 76.5405C77.6467 76.346 77.7849 76.1412 77.9091 75.9261C80.9889 70.5917 74.2602 60.941 62.8801 54.3707C51.5 47.8004 39.778 46.7985 36.6981 52.1329C36.5725 52.3506 36.4632 52.5754 36.3698 52.8069C36.2181 53.0015 36.0799 53.2063 35.9557 53.4213C32.8759 58.7558 39.6045 68.4065 50.9846 74.9768C62.3647 81.5471 74.0868 82.5489 77.1667 77.2145C77.2923 76.9969 77.4016 76.7721 77.495 76.5405Z" fill="#FABE46"/>
    <path fill-rule="evenodd" clip-rule="evenodd" d="M81.2164 37.4834C83.2696 33.9271 82.0512 29.3797 78.4949 27.3265C74.9386 25.2733 70.3912 26.4918 68.338 30.048L66.5957 33.0658C65.5487 34.8792 64.0025 36.3533 62.1412 37.3126L44.3424 46.4853C43.4607 46.9397 42.7283 47.638 42.2324 48.497L39.6461 52.9766C39.6461 52.9766 39.6461 52.9766 39.6461 52.9766C39.6461 52.9766 39.6461 52.9767 39.6461 52.9767C39.646 52.977 39.6458 52.9772 39.6456 52.9775C36.9765 57.6007 42.8849 66.009 52.8424 71.758C62.8 77.507 73.036 78.4197 75.7052 73.7965C75.7099 73.7885 75.7145 73.7805 75.719 73.7725C77.8948 70.004 78.9412 65.6894 78.7335 61.3428L78.0236 46.4823C77.9236 44.3907 78.4272 42.3145 79.4741 40.5012L81.2164 37.4834Z" fill="#FFE45E"/>
    <path fill-rule="evenodd" clip-rule="evenodd" d="M66.7922 28.2621C66.7873 28.2703 66.7825 28.2786 66.7777 28.2868C65.5458 30.4206 68.2949 34.3142 72.9181 36.9833C77.5411 39.6524 82.2874 40.0865 83.5195 37.953L83.5197 37.9531L84.2632 36.6652L84.2628 36.665C85.4936 34.531 82.7446 30.6381 78.122 27.9692C73.4988 25.3 68.7523 24.866 67.5204 26.9998C67.5123 27.0137 67.5045 27.0276 67.4968 27.0417L66.7922 28.2621Z" fill="#FABE46"/>
    <circle cx="82.5856" cy="20.2429" r="14.1272" transform="rotate(30 82.5856 20.2429)" fill="#FFE45E"/>
    <ellipse cx="52.8414" cy="49.3025" rx="3.10463" ry="5.17438" transform="rotate(75.7209 52.8414 49.3025)" fill="#FFFFCC"/>
    <ellipse cx="81.0341" cy="14.3248" rx="4.0151" ry="6.69183" transform="rotate(75.7209 81.0341 14.3248)" fill="#FFFFCC"/>
    <path d="M120.605 120.464L120.265 117.947C120.006 116.032 118.94 114.32 117.336 113.242L114.263 111.176C113.301 110.529 112.062 110.459 111.034 110.994C110.123 111.467 109.498 112.352 109.356 113.368L108.298 120.955C108.115 122.266 108.672 123.57 109.746 124.342C110.082 124.584 110.458 124.765 110.856 124.878L114.304 125.857C115.657 126.241 117.113 125.971 118.239 125.127L118.843 124.674C120.15 123.693 120.824 122.083 120.605 120.464Z" fill="#FFD59A"/>
    <path d="M113.4 110.85L116.874 112.894C118.627 113.925 119.487 115.99 118.985 117.96C118.71 119.037 117.411 119.467 116.548 118.765L114.199 116.853C113.937 116.64 113.726 116.371 113.582 116.065L111.809 112.302C111.337 111.299 112.445 110.288 113.4 110.85Z" fill="#FFEECC"/>
    <path d="M106.757 128.548C106.591 127.81 106.036 127.222 105.31 127.013L103.85 126.594C102.687 126.26 101.466 126.891 101.066 128.032C100.545 129.517 101.647 131.071 103.22 131.071L104.739 131.071C106.064 131.071 107.048 129.841 106.757 128.548Z" fill="#FFEECC"/>
    <path d="M127.363 126.953C127.192 126.406 126.738 125.994 126.177 125.878L123.37 125.295C122.531 125.121 121.681 125.539 121.307 126.31C120.703 127.553 121.608 129 122.99 129L125.857 129C126.92 129 127.679 127.968 127.363 126.953Z" fill="#FFEECC"/>
    <path d="M41.7407 129.662L41.6818 129.194C41.4445 127.308 40.4261 125.599 38.8853 124.486C37.5617 123.53 35.9344 123.068 34.3063 123.193L29.3708 123.573C26.7704 123.772 24.6715 125.778 24.3538 128.367L24.1434 130.081C24.0537 130.812 24.3322 131.54 24.887 132.024C25.2286 132.322 25.6534 132.509 26.1043 132.559L37.6368 133.83C38.6224 133.938 39.6106 133.65 40.3825 133.027C41.3879 132.217 41.9019 130.944 41.7407 129.662Z" fill="#FFD59A"/>
    <path d="M38.2951 123.95L39.4381 124.725C40.4395 125.404 40.9201 126.629 40.6474 127.807C40.48 128.531 39.5984 128.81 39.0456 128.314L38.0078 127.384C37.7643 127.166 37.4659 127.018 37.1448 126.957L28.7986 125.361C27.9996 125.209 27.7664 124.177 28.4221 123.695C28.5654 123.59 28.7358 123.528 28.9133 123.517L35.2033 123.109C36.2987 123.038 37.3865 123.334 38.2951 123.95Z" fill="#FFFBE5"/>
</svg>
